# xmcd
#
# Track frame offsets:
#	150
#	13035
#	22786
#	34915
#	47791
#	61333
#	73061
#	84309
#	94781
#	105921
#
# Disc length: 1544 seconds
#
# Revision: 0
# Processed by: cddbd v1.5.2PL0 Copyright (c) Steve Scherf et al.
# Submitted via: audiograbber 1.83.01
#
DISCID=7206060a
DTITLE=Various Artist - All Star Country Western Cavalcade CD4
DYEAR=1969
DGENRE=Country
TTITLE0=Merle Haggard - The Bottle Let Me Down
TTITLE1=Wynn Stewart - Love's Gonna Happen to Me
TTITLE2=Ferlin Husky - What Am I Gonna Do Now
TTITLE3=Jean Shepard - So Wrong, So Fast
TTITLE4=Bobby Austin - Sweet Evalina
TTITLE5=Wynn Stewart - It's Such a Pretty World Today
TTITLE6=Buck Owens - My Heart Skips a Beat
TTITLE7=Wanda Jackson - I'd Like to Help You out
TTITLE8=Tex Ritter - Remember the Alamo
TTITLE9=Sonny James - True Love's a Blessing
EXTD=
EXTT0=
EXTT1=
EXTT2=
EXTT3=
EXTT4=
EXTT5=
EXTT6=
EXTT7=
EXTT8=
EXTT9=
PLAYORDER=
